<svg width="62" height="62" viewBox="0 0 62 62" fill="none" xmlns="http://www.w3.org/2000/svg">
<circle cx="31" cy="31" r="30" fill="white" fill-opacity="0.1"/>
<circle cx="31" cy="31" r="30.3704" stroke="white" stroke-opacity="0.5" stroke-width="0.740741"/>
<g clip-path="url(#clip0_2540_4100)">
<path d="M36.6136 39.9837L35.9025 34.2904C35.8017 33.4839 35.4098 32.7421 34.8004 32.2044C34.1911 31.6666 33.4063 31.37 32.5936 31.3704H30.1447C29.3324 31.3706 28.5481 31.6674 27.9392 32.2051C27.3303 32.7428 26.9387 33.4843 26.838 34.2904L26.1258 39.9837C26.0867 40.2965 26.1146 40.614 26.2077 40.9152C26.3007 41.2164 26.4568 41.4943 26.6655 41.7305C26.8742 41.9668 27.1307 42.1559 27.4182 42.2854C27.7056 42.4149 28.0172 42.4817 28.3325 42.4815H34.408C34.7231 42.4815 35.0347 42.4146 35.322 42.285C35.6092 42.1555 35.8657 41.9664 36.0743 41.7301C36.2829 41.4939 36.4388 41.216 36.5318 40.9149C36.6248 40.6138 36.6526 40.2964 36.6136 39.9837Z" stroke="white" stroke-width="1.11111" stroke-linecap="round" stroke-linejoin="round"/>
<path d="M31.3704 26.9259C33.2114 26.9259 34.7038 25.4336 34.7038 23.5926C34.7038 21.7517 33.2114 20.2593 31.3704 20.2593C29.5295 20.2593 28.0371 21.7517 28.0371 23.5926C28.0371 25.4336 29.5295 26.9259 31.3704 26.9259Z" stroke="white" stroke-width="1.11111" stroke-linecap="round" stroke-linejoin="round"/>
<path d="M22.4815 30.2593C23.7088 30.2593 24.7037 29.2643 24.7037 28.037C24.7037 26.8097 23.7088 25.8148 22.4815 25.8148C21.2542 25.8148 20.2593 26.8097 20.2593 28.037C20.2593 29.2643 21.2542 30.2593 22.4815 30.2593Z" stroke="white" stroke-width="1.11111" stroke-linecap="round" stroke-linejoin="round"/>
<path d="M40.2593 30.2593C41.4866 30.2593 42.4816 29.2643 42.4816 28.037C42.4816 26.8097 41.4866 25.8148 40.2593 25.8148C39.032 25.8148 38.0371 26.8097 38.0371 28.037C38.0371 29.2643 39.032 30.2593 40.2593 30.2593Z" stroke="white" stroke-width="1.11111" stroke-linecap="round" stroke-linejoin="round"/>
<path d="M22.4813 33.5927H22.1413C21.6153 33.5926 21.1063 33.7791 20.7049 34.1191C20.3034 34.4591 20.0356 34.9304 19.9491 35.4493L19.5791 37.6715C19.526 37.9899 19.5429 38.3161 19.6286 38.6272C19.7143 38.9384 19.8668 39.2272 20.0755 39.4735C20.2841 39.7198 20.5439 39.9177 20.8368 40.0534C21.1296 40.1891 21.4485 40.2594 21.7713 40.2593H25.8147" stroke="white" stroke-width="1.11111" stroke-linecap="round" stroke-linejoin="round"/>
<path d="M40.2594 33.5927H40.5994C41.1254 33.5926 41.6344 33.7791 42.0358 34.1191C42.4372 34.4591 42.705 34.9304 42.7916 35.4493L43.1616 37.6715C43.2147 37.9899 43.1978 38.3161 43.1121 38.6272C43.0263 38.9384 42.8739 39.2272 42.6652 39.4735C42.4566 39.7198 42.1968 39.9177 41.9039 40.0534C41.6111 40.1891 41.2921 40.2594 40.9694 40.2593H36.926" stroke="white" stroke-width="1.11111" stroke-linecap="round" stroke-linejoin="round"/>
</g>
<defs>
<clipPath id="clip0_2540_4100">
<rect width="26.6667" height="26.6667" fill="white" transform="translate(18.0371 18.037)"/>
</clipPath>
</defs>
</svg>
