<svg width="20" height="21" viewBox="0 0 20 21" fill="none" xmlns="http://www.w3.org/2000/svg">
<path d="M6.66667 6.74756C6.32149 6.74756 6.04167 7.02738 6.04167 7.37256C6.04167 7.71774 6.32149 7.99756 6.66667 7.99756H13.3333C13.6785 7.99756 13.9583 7.71774 13.9583 7.37256C13.9583 7.02738 13.6785 6.74756 13.3333 6.74756H6.66667Z" fill="white"/>
<path d="M6.66667 10.0809C6.32149 10.0809 6.04167 10.3607 6.04167 10.7059C6.04167 11.0511 6.32149 11.3309 6.66667 11.3309H9.16667C9.51184 11.3309 9.79167 11.0511 9.79167 10.7059C9.79167 10.3607 9.51184 10.0809 9.16667 10.0809H6.66667Z" fill="white"/>
<path d="M6.66667 13.4142C6.32149 13.4142 6.04167 13.694 6.04167 14.0392C6.04167 14.3844 6.32149 14.6642 6.66667 14.6642H13.3333C13.6785 14.6642 13.9583 14.3844 13.9583 14.0392C13.9583 13.694 13.6785 13.4142 13.3333 13.4142H6.66667Z" fill="white"/>
<path fill-rule="evenodd" clip-rule="evenodd" d="M13.7196 1.85067C12.7678 1.74755 11.5682 1.74755 10.0377 1.74756H9.96229C8.43185 1.74755 7.23218 1.74755 6.2804 1.85067C5.30912 1.9559 4.52213 2.1745 3.8502 2.66269C3.44341 2.95823 3.08568 3.31597 2.79013 3.72275C2.30194 4.39469 2.08334 5.18167 1.97811 6.15296C1.87499 7.10473 1.87499 8.3044 1.875 9.83485V11.5769C1.87499 13.1074 1.87499 14.307 1.97811 15.2588C2.08334 16.2301 2.30194 17.0171 2.79013 17.689C3.08568 18.0958 3.44341 18.4536 3.8502 18.7491C4.52213 19.2373 5.30912 19.4559 6.2804 19.5611C7.23216 19.6642 8.4318 19.6642 9.96221 19.6642H10.0377C11.5681 19.6642 12.7678 19.6642 13.7196 19.5611C14.6909 19.4559 15.4779 19.2373 16.1498 18.7491C16.5566 18.4536 16.9143 18.0958 17.2099 17.689C17.6981 17.0171 17.9167 16.2301 18.0219 15.2588C18.125 14.3071 18.125 13.1074 18.125 11.577V9.83483C18.125 8.30442 18.125 7.10472 18.0219 6.15296C17.9167 5.18167 17.6981 4.39469 17.2099 3.72275C16.9143 3.31597 16.5566 2.95823 16.1498 2.66269C15.4779 2.1745 14.6909 1.9559 13.7196 1.85067ZM4.58493 3.67396C5.00826 3.36638 5.55011 3.1871 6.41504 3.09339C7.29166 2.99842 8.42369 2.99756 10 2.99756C11.5763 2.99756 12.7083 2.99842 13.585 3.09339C14.4499 3.1871 14.9917 3.36638 15.4151 3.67396C15.7157 3.89241 15.9802 4.15682 16.1986 4.45749C16.5062 4.88082 16.6855 5.42267 16.7792 6.2876C16.8741 7.16422 16.875 8.29625 16.875 9.87256V11.5392C16.875 13.1155 16.8741 14.2476 16.7792 15.1242C16.6855 15.9891 16.5062 16.531 16.1986 16.9543C15.9802 17.255 15.7157 17.5194 15.4151 17.7378C14.9917 18.0454 14.4499 18.2247 13.585 18.3184C12.7083 18.4134 11.5763 18.4142 10 18.4142C8.42369 18.4142 7.29166 18.4134 6.41504 18.3184C5.55011 18.2247 5.00826 18.0454 4.58493 17.7378C4.28426 17.5194 4.01985 17.255 3.8014 16.9543C3.49383 16.531 3.31454 15.9891 3.22083 15.1242C3.12586 14.2476 3.125 13.1155 3.125 11.5392V9.87256C3.125 8.29625 3.12586 7.16422 3.22083 6.2876C3.31454 5.42267 3.49383 4.88082 3.8014 4.45749C4.01985 4.15682 4.28426 3.89241 4.58493 3.67396Z" fill="white"/>
</svg>
