<svg width="20" height="21" viewBox="0 0 20 21" fill="none" xmlns="http://www.w3.org/2000/svg">
<path fill-rule="evenodd" clip-rule="evenodd" d="M8.66424 3.95138C9.54753 3.79078 10.4525 3.79078 11.3358 3.95138C15.3049 4.67303 17.9832 8.41654 17.3848 12.406L17.378 12.4515C16.1691 12.5149 15.2084 13.5152 15.2084 14.7399V16.4066C15.2084 17.6722 16.2344 18.6983 17.5 18.6983C18.7657 18.6983 19.7917 17.6722 19.7917 16.4066V14.7399C19.7917 13.8725 19.3102 13.1186 18.6003 12.7294L18.621 12.5914C19.3196 7.93415 16.1929 3.56399 11.5595 2.72154C10.5283 2.53406 9.47178 2.53406 8.44063 2.72154C3.80719 3.56399 0.680515 7.93415 1.37911 12.5914L1.3998 12.7294C0.689919 13.1186 0.208374 13.8725 0.208374 14.7399V16.4066C0.208374 17.6722 1.23439 18.6983 2.50004 18.6983C3.76569 18.6983 4.79171 17.6722 4.79171 16.4066V14.7399C4.79171 13.5152 3.831 12.5149 2.6221 12.4515L2.61528 12.406C2.01686 8.41654 4.6952 4.67303 8.66424 3.95138ZM2.24388 13.7298C2.32518 13.7093 2.41088 13.6983 2.50004 13.6983C3.07534 13.6983 3.54171 14.1646 3.54171 14.7399V16.4066C3.54171 16.9819 3.07534 17.4483 2.50004 17.4483C1.92474 17.4483 1.45837 16.9819 1.45837 16.4066V14.7399C1.45837 14.2537 1.7921 13.8438 2.24388 13.7298ZM16.4584 14.7399C16.4584 14.1646 16.9247 13.6983 17.5 13.6983C17.5892 13.6983 17.6749 13.7093 17.7562 13.7298C18.208 13.8438 18.5417 14.2537 18.5417 14.7399V16.4066C18.5417 16.9819 18.0753 17.4483 17.5 17.4483C16.9247 17.4483 16.4584 16.9819 16.4584 16.4066V14.7399Z" fill="white"/>
</svg>
