<svg width="20" height="21" viewBox="0 0 20 21" fill="none" xmlns="http://www.w3.org/2000/svg">
<path d="M5.24472 4.84386C3.02238 6.45849 1.9112 7.2658 1.47478 8.45832C1.43977 8.55398 1.40828 8.6509 1.38038 8.74887C1.0325 9.97015 1.45694 11.2764 2.3058 13.8889C3.15466 16.5015 3.57909 17.8077 4.57838 18.5913C4.65854 18.6542 4.74098 18.7141 4.82553 18.7709C5.18107 19.0098 5.57297 19.1681 6.04167 19.273V16.3889C6.04167 14.2028 7.81387 12.4306 10 12.4306C12.1861 12.4306 13.9583 14.2028 13.9583 16.3889V19.273C14.427 19.1681 14.8189 19.0098 15.1745 18.7709C15.259 18.7141 15.3415 18.6542 15.4216 18.5913C16.4209 17.8077 16.8454 16.5015 17.6942 13.8889C18.5431 11.2764 18.9675 9.97015 18.6196 8.74887C18.5917 8.6509 18.5602 8.55398 18.5252 8.45832C18.0888 7.2658 16.9776 6.45849 14.7553 4.84387C12.5329 3.22924 11.4218 2.42191 10.1528 2.37536C10.051 2.37162 9.94905 2.37162 9.84725 2.37536C8.57824 2.42191 7.46707 3.22923 5.24472 4.84386Z" fill="white"/>
<path d="M12.7083 19.4335V16.3889C12.7083 14.8932 11.4958 13.6806 10 13.6806C8.50423 13.6806 7.29167 14.8932 7.29167 16.3889V19.4335C8.01913 19.4791 8.89931 19.4791 10 19.4791C11.1007 19.4791 11.9809 19.4791 12.7083 19.4335Z" fill="white"/>
</svg>
