<svg width="20" height="21" viewBox="0 0 20 21" fill="none" xmlns="http://www.w3.org/2000/svg">
<path fill-rule="evenodd" clip-rule="evenodd" d="M9.16667 5.91427C7.90101 5.91427 6.875 6.94028 6.875 8.20593C6.875 9.47159 7.90101 10.4976 9.16667 10.4976C10.4323 10.4976 11.4583 9.47159 11.4583 8.20593C11.4583 6.94028 10.4323 5.91427 9.16667 5.91427ZM8.125 8.20593C8.125 7.63064 8.59137 7.16427 9.16667 7.16427C9.74196 7.16427 10.2083 7.63064 10.2083 8.20593C10.2083 8.78123 9.74196 9.2476 9.16667 9.2476C8.59137 9.2476 8.125 8.78123 8.125 8.20593Z" fill="white"/>
<path fill-rule="evenodd" clip-rule="evenodd" d="M13.7196 2.68404C12.7678 2.58092 11.5682 2.58093 10.0377 2.58093H9.96229C8.43185 2.58093 7.23218 2.58092 6.2804 2.68404C5.30912 2.78927 4.52213 3.00787 3.8502 3.49606C3.44341 3.79161 3.08568 4.14934 2.79013 4.55613C2.30194 5.22807 2.08334 6.01505 1.97811 6.98633C1.87499 7.93811 1.87499 9.13778 1.875 10.6682V10.7436C1.87499 12.2741 1.87499 13.4738 1.97811 14.4255C2.08334 15.3968 2.30194 16.1838 2.79013 16.8557C2.80085 16.8705 2.81166 16.8852 2.82255 16.8998C3.1117 17.2884 3.45817 17.631 3.8502 17.9158C4.52213 18.404 5.30912 18.6226 6.2804 18.7278C7.23216 18.8309 8.4318 18.8309 9.96221 18.8309H10.0377C11.5681 18.8309 12.7678 18.8309 13.7196 18.7278C14.6909 18.6226 15.4779 18.404 16.1498 17.9158C16.5566 17.6203 16.9143 17.2625 17.2099 16.8557C17.9348 15.858 18.0752 14.5848 18.1124 12.7897C18.125 12.1794 18.125 11.4895 18.125 10.7109V10.6682C18.125 9.1378 18.125 7.93809 18.0219 6.98633C17.9167 6.01505 17.6981 5.22807 17.2099 4.55613C16.9143 4.14934 16.5566 3.79161 16.1498 3.49606C15.4779 3.00787 14.6909 2.78927 13.7196 2.68404ZM4.58493 4.50733C5.00826 4.19976 5.55011 4.02048 6.41504 3.92677C7.29166 3.83179 8.42369 3.83093 10 3.83093C11.5763 3.83093 12.7083 3.83179 13.585 3.92677C14.4499 4.02048 14.9917 4.19976 15.4151 4.50733C15.7157 4.72578 15.9802 4.99019 16.1986 5.29086C16.5062 5.7142 16.6855 6.25604 16.7792 7.12097C16.8741 7.99759 16.875 9.12962 16.875 10.7059C16.875 10.9184 16.875 11.1231 16.8747 11.3204C16.7865 11.2456 16.7029 11.1798 16.6207 11.1214C14.5614 9.65935 11.7209 10.0465 10.1281 12.0064C9.99594 12.1691 9.86934 12.3596 9.72592 12.5971L9.62181 12.5762C8.70589 12.393 8.14503 12.2807 7.61847 12.2919C6.21141 12.3218 4.88863 12.9687 4.00119 14.0611C3.77584 14.3384 3.58565 14.6632 3.35618 15.1043C3.29881 14.8683 3.25435 14.6002 3.22083 14.2909C3.12586 13.4143 3.125 12.2822 3.125 10.7059C3.125 9.12962 3.12586 7.99759 3.22083 7.12097C3.31454 6.25604 3.49383 5.7142 3.8014 5.29086C4.01985 4.99019 4.28426 4.72578 4.58493 4.50733ZM15.897 12.1407C16.1033 12.2871 16.342 12.5166 16.8561 13.0294C16.8084 14.6717 16.6433 15.5089 16.1986 16.121C15.9802 16.4217 15.7157 16.6861 15.4151 16.9045C14.9917 17.2121 14.4499 17.3914 13.585 17.4851C12.7083 17.5801 11.5763 17.5809 10 17.5809C9.38183 17.5809 8.83199 17.5808 8.33908 17.5749L10.2713 14.1563C10.3797 13.9647 10.4737 13.7982 10.5577 13.6513C10.824 13.1857 10.9679 12.9551 11.0982 12.7948C12.2754 11.3462 14.375 11.06 15.897 12.1407ZM6.9559 17.4817C6.94712 17.4973 6.93908 17.513 6.93177 17.5289C6.74988 17.5172 6.57805 17.5028 6.41504 17.4851C5.55011 17.3914 5.00826 17.2121 4.58493 16.9045C4.40062 16.7706 4.22994 16.6195 4.07512 16.4532C4.54327 15.5169 4.73681 15.138 4.97137 14.8493C5.6273 14.0419 6.60501 13.5637 7.64501 13.5416C7.96574 13.5348 8.32028 13.5932 9.07018 13.7411L6.9559 17.4817Z" fill="white"/>
</svg>
