<svg width="360" height="184" viewBox="0 0 360 184" fill="none" xmlns="http://www.w3.org/2000/svg">
<path d="M135.131 141.762C137.906 138.655 141.209 134.492 142.373 131.172C162.365 99.8425 160.908 67.3432 160.016 58.2971C159.853 56.6205 159.844 54.9297 159.705 53.2484C155.468 1.71448 90.6133 0 90.6133 0C68.8241 0 52.2162 5.0582 39.5818 12.3945C39.5818 12.3945 39.5674 12.3992 39.5482 12.4134C36.0589 14.4405 32.8763 16.6428 29.967 18.9588C20.2131 25.793 6.39002 36.0089 5.28283 39.7646C4.64057 41.9432 2.95342 48.7538 1.40047 56.9047C1.18958 58.0224 1.00265 59.1449 0.87324 60.2721C-1.32676 79.4061 1.32378 95.7553 1.32378 95.7553C3.74906 113.857 9.59177 127.966 15.5591 138.224C24.292 153.252 37.8707 165.031 54.2389 170.885C74.0725 157.657 107.398 139.115 135.131 141.757V141.762Z" fill="url(#paint0_linear_2893_4185)"/>
<path d="M85.0384 174.587C92.8511 173.626 100.323 170.798 106.885 166.502C116.394 160.274 124.236 153.445 130.702 146.331C94.9504 150.688 75.251 162.633 64.4427 173.829C72.3561 175.359 79.3539 175.293 85.0384 174.592V174.587Z" fill="#C03A27"/>
<path d="M137.93 141.024C133.319 140.001 127.524 138.694 125.631 138.135C122.319 137.15 120.992 135.184 120.225 133.546C119.448 131.912 117.574 129.619 114.368 129.619C112.714 129.619 111.127 130.084 109.766 130.922C108.415 131.751 107.293 132.954 106.579 134.431C106.138 135.341 105.596 136.297 104.954 137.245C104.106 138.466 105.04 140.1 106.536 139.977C108.371 139.83 110.696 139.75 113.399 139.892C114.962 139.973 115.158 142.18 113.629 142.511C104.911 144.406 90.7906 148.247 78.8655 155.09C78.1849 155.483 77.5331 154.56 78.1322 154.067C79.6612 152.817 81.4969 151.458 83.601 150.103C85.039 149.18 86.7309 147.939 88.4995 146.461L88.5187 146.452C88.5187 146.452 88.6146 146.371 88.7823 146.224C89.4677 145.646 90.1579 145.031 90.8577 144.387C92.4826 142.918 94.4093 141.09 94.7497 140.413C99.0298 135.577 102.581 129.747 102.816 123.998C103.257 113.228 100.458 102.68 84.6603 99.5117C69.3322 96.438 45.252 99.1376 38.0049 75.8121C37.7748 75.0875 36.7779 75.0449 36.4951 75.7316C33.8781 82.2343 27.1151 102.846 37.7317 121.274C49.1823 141.133 73.4063 140.636 85.7723 133.437C87.3636 132.513 87.0616 130.155 85.269 129.709C80.3418 128.478 72.1074 125.807 65.2964 120.526C65.9483 120.839 78.2808 126.726 90.7283 124.751C92.9619 124.391 94.5963 122.463 94.5867 120.228C94.5771 117.722 94.0019 114.241 91.6198 110.627C91.6198 110.627 93.1056 114.686 92.6359 118.892C92.4346 120.682 90.9296 122.061 89.113 122.203C81.9331 122.761 62.459 122.586 49.0241 106.786C48.6454 106.341 47.9456 106.839 48.2572 107.336C53.1078 115.089 63.1875 127.517 79.388 130.694C80.0878 130.837 80.1405 131.793 79.4599 131.987C75.5727 133.044 67.7265 134.36 58.6006 131.376C40.9143 125.608 33.4659 108.269 36.9648 83.6362C37.0798 82.85 38.1583 82.6842 38.4938 83.3994C40.7753 88.3581 47.3801 98.4319 63.7962 100.284C85.734 102.756 101.052 101.752 99.8686 124.002C99.3941 133.006 90.5414 140.029 80.5335 147.261L78.415 148.787C65.7422 157.885 52.0533 167.546 51.4781 182.048C51.4158 183.521 53.4241 184.057 54.1622 182.783C60.1631 172.458 80.0734 148.578 137.815 142.933C138.917 142.828 139.023 141.275 137.94 141.038L137.93 141.024Z" fill="url(#paint1_linear_2893_4185)"/>
<path d="M79.0093 148.346C84.042 147.105 102.548 130.523 102.816 123.988C103.257 113.218 100.458 102.67 84.6603 99.5017C69.3322 96.428 45.252 99.1276 38.0049 75.8021C37.7748 75.0775 36.7779 75.0348 36.4951 75.7216C33.8781 82.2243 27.1151 102.836 37.7317 121.264C49.1823 141.123 73.4063 140.626 85.7723 133.427C87.3636 132.503 87.0616 130.145 85.269 129.699C80.3418 128.468 72.1073 125.797 65.2964 120.516C65.9483 120.829 78.2808 126.716 90.7283 124.741C92.9618 124.381 94.5963 122.453 94.5867 120.218C94.5771 117.712 94.0019 114.231 91.6198 110.617C91.6198 110.617 93.1056 114.676 92.6359 118.882C92.4346 120.672 90.9296 122.05 89.113 122.193C81.9331 122.751 62.459 122.576 49.0241 106.776C48.6454 106.331 47.9456 106.829 48.2572 107.326C53.1077 115.079 63.1875 127.507 79.388 130.684C80.0878 130.827 80.1405 131.783 79.4599 131.977C75.5727 133.034 67.7265 134.35 58.6006 131.366C40.9143 125.598 33.4659 108.259 36.9648 83.6262C37.0798 82.84 38.1583 82.6742 38.4938 83.3894C40.7753 88.3481 47.3801 98.4219 63.7962 100.274C85.7339 102.746 101.052 101.742 99.8686 123.992C99.3701 133.446 89.6259 140.72 79.0093 148.35V148.346Z" fill="white"/>
<path d="M191.118 73.192L186.408 72.4942V69.5868H203.097V72.4942L197.34 73.192V109.361L212.342 108.838L215.773 99.0687L219.32 99.592L217.285 112.792H186.291V109.943L191.118 109.361V73.192ZM229.833 74.7039C228.593 74.7039 227.662 74.355 227.042 73.6572C226.422 72.9594 226.112 72.0678 226.112 70.9823C226.112 69.7418 226.48 68.7145 227.216 67.9004C227.992 67.0863 229.038 66.6793 230.357 66.6793C231.675 66.6793 232.644 67.0282 233.264 67.726C233.884 68.4238 234.194 69.3154 234.194 70.4009C234.194 71.7189 233.807 72.7656 233.031 73.5409C232.295 74.3163 231.248 74.7039 229.891 74.7039H229.833ZM227.507 84.9964L223.088 83.9497V80.8678L232.101 79.763H232.217L233.555 80.8097V109.477L238.207 109.943V112.792H222.797V109.943L227.507 109.419V84.9964ZM239.661 80.5189H253.152V83.2519L249.023 84.0079L254.896 100.755L257.338 108.14L259.432 100.988L265.305 84.0079L261.351 83.2519V80.5189H273.155V83.2519L270.131 84.0079L258.908 113.257H253.966L242.278 84.0079L239.661 83.2519V80.5189ZM289.691 113.432C285 113.432 281.414 111.9 278.933 108.838C276.491 105.775 275.269 101.685 275.269 96.5682C275.269 93.1955 275.909 90.2299 277.188 87.6713C278.468 85.1127 280.251 83.1356 282.538 81.74C284.864 80.3445 287.5 79.6467 290.447 79.6467C294.052 79.6467 296.843 80.6546 298.82 82.6704C300.836 84.6475 301.902 87.4969 302.018 91.2184C302.018 93.5832 301.883 95.3858 301.611 96.6264H281.608C281.685 100.464 282.577 103.566 284.283 105.93C285.988 108.256 288.411 109.419 291.551 109.419C293.102 109.419 294.711 109.148 296.378 108.605C298.084 108.024 299.402 107.345 300.332 106.57L301.437 109.129C300.313 110.292 298.646 111.299 296.436 112.152C294.226 113.005 291.978 113.432 289.691 113.432ZM295.622 93.5444C295.738 92.7303 295.796 91.8969 295.796 91.044C295.758 88.5242 295.215 86.5471 294.168 85.1127C293.16 83.6396 291.551 82.903 289.342 82.903C287.093 82.903 285.291 83.7171 283.934 85.3453C282.616 86.9735 281.86 89.7066 281.666 93.5444H295.622ZM311.261 69.4123L306.551 68.7727V66.2722L315.913 65.1674H316.029L317.309 66.0396V109.477L322.251 109.943V112.792H306.551V109.943L311.261 109.419V69.4123ZM331.09 127.271C330.431 127.271 329.772 127.233 329.113 127.155C328.493 127.077 328.047 126.961 327.776 126.806V121.747C328.009 121.902 328.454 122.018 329.113 122.096C329.811 122.173 330.47 122.212 331.09 122.212C332.951 122.212 334.579 121.553 335.975 120.235C337.409 118.956 338.786 116.475 340.104 112.792H337.312L326.264 84.0079L323.589 83.2519V80.5189H337.603V83.2519L333.126 83.9497L338.824 101.104L341.499 109.594L344 101.046L349.175 83.9497L345.279 83.2519V80.5189H356.967V83.2519L354.06 83.9497C348.361 101.395 345.008 111.299 344 113.664C342.682 116.998 341.48 119.596 340.394 121.456C339.309 123.356 338.03 124.79 336.557 125.759C335.083 126.767 333.261 127.271 331.09 127.271Z" fill="white"/>
<path d="M235.491 140.999H233.749V129.467H233.676L228.906 140.896H227.329L222.559 129.467H222.486V140.999H220.744V126.034H222.911L228.076 138.521H228.159L233.324 126.034H235.491V140.999ZM247.667 139.319V140.999H238.395V126.034H247.667V127.714H240.262V132.516H247.283V134.175H240.262V139.319H247.667ZM259.407 139.319V140.999H250.135V126.034H259.407V127.714H252.002V132.516H259.023V134.175H252.002V139.319H259.407ZM267.527 140.999H265.661V127.714H260.942V126.034H272.246V127.714H267.527V140.999ZM276.083 140.999H274.217V126.034H276.083V140.999ZM280.833 140.999H278.987V126.034H280.802L288.995 137.784H289.089V126.034H290.935V140.999H289.12L280.927 129.29H280.833V140.999ZM306.46 134.808C306.46 138.852 304.106 141.248 300.113 141.248C295.934 141.248 293.258 138.199 293.258 133.439C293.258 128.761 295.923 125.785 300.113 125.785C303.349 125.785 305.807 127.704 306.367 130.68H304.407C303.784 128.658 302.218 127.507 300.113 127.507C297.033 127.507 295.177 129.726 295.177 133.428C295.177 137.193 297.064 139.527 300.113 139.527C302.768 139.527 304.593 137.805 304.593 135.295V135.026H300.372V133.387H306.46V134.808ZM308.14 136.882H310.017C310.194 138.5 311.729 139.568 313.865 139.568C315.887 139.568 317.36 138.5 317.36 137.027C317.36 135.762 316.479 134.984 314.467 134.466L312.548 133.968C309.789 133.262 308.566 132.049 308.566 130.016C308.566 127.527 310.743 125.785 313.855 125.785C316.831 125.785 318.988 127.548 319.071 130.058H317.205C317.039 128.45 315.742 127.465 313.793 127.465C311.853 127.465 310.505 128.471 310.505 129.933C310.505 131.064 311.335 131.738 313.367 132.267L314.933 132.682C318.034 133.46 319.289 134.652 319.289 136.799C319.289 139.537 317.132 141.248 313.689 141.248C310.515 141.248 308.317 139.527 308.14 136.882Z" fill="#F47B20"/>
<defs>
<linearGradient id="paint0_linear_2893_4185" x1="-0.00388616" y1="85.4447" x2="160.453" y2="85.4447" gradientUnits="userSpaceOnUse">
<stop stop-color="#C52127"/>
<stop offset="1" stop-color="#F47B20"/>
</linearGradient>
<linearGradient id="paint1_linear_2893_4185" x1="31.9561" y1="129.359" x2="138.692" y2="129.359" gradientUnits="userSpaceOnUse">
<stop stop-color="#178FC3"/>
<stop offset="1" stop-color="#263877"/>
</linearGradient>
</defs>
</svg>
