<svg width="20" height="21" viewBox="0 0 20 21" fill="none" xmlns="http://www.w3.org/2000/svg">
<path d="M7.43266 2.58094C6.72264 2.58088 6.29016 2.58085 5.91709 2.63993C3.86677 2.96467 2.25874 4.57271 1.934 6.62302C1.87491 6.99609 1.87495 7.42858 1.875 8.13859L1.875 13.2733C1.87495 13.9833 1.87491 14.4158 1.934 14.7889C2.25874 16.8392 3.86677 18.4472 5.91709 18.7719C6.29016 18.831 6.72265 18.831 7.43267 18.8309L8.33334 18.8309C9.41133 18.8309 10.4078 18.4742 11.2087 17.8726C11.4847 17.6653 11.5404 17.2735 11.3331 16.9976C11.1258 16.7216 10.734 16.6659 10.458 16.8732C9.86611 17.3178 9.13136 17.5809 8.33334 17.5809H7.50001C6.70195 17.5809 6.37569 17.579 6.11263 17.5373C4.59718 17.2973 3.40863 16.1088 3.16861 14.5933C3.12695 14.3303 3.12501 14.004 3.12501 13.2059L3.12501 8.20594C3.12501 7.40788 3.12695 7.08162 3.16861 6.81857C3.40863 5.30311 4.59718 4.11457 6.11264 3.87454C6.37569 3.83288 6.70195 3.83094 7.50001 3.83094H8.33334C9.13136 3.83094 9.86611 4.09413 10.458 4.5387C10.734 4.746 11.1258 4.69032 11.3331 4.41433C11.5404 4.13834 11.4847 3.74655 11.2087 3.53924C10.4078 2.93766 9.41133 2.58094 8.33334 2.58094L7.43266 2.58094Z" fill="white"/>
<path d="M14.555 6.88287C14.2845 6.66841 13.8914 6.71382 13.6769 6.9843C13.4625 7.25477 13.5079 7.64789 13.7784 7.86234L15.2475 9.02721C15.8342 9.4924 16.2359 9.81206 16.5087 10.0809L5.83334 10.0809C5.48816 10.0809 5.20834 10.3608 5.20834 10.7059C5.20834 11.0511 5.48816 11.3309 5.83334 11.3309L16.5087 11.3309C16.2359 11.5998 15.8342 11.9195 15.2475 12.3847L13.7784 13.5495C13.5079 13.764 13.4625 14.1571 13.6769 14.4276C13.8914 14.6981 14.2845 14.7435 14.555 14.529L16.054 13.3405C16.6144 12.8962 17.0768 12.5295 17.4062 12.2013C17.7443 11.8646 18.0245 11.4908 18.1006 11.0132C18.1169 10.9114 18.125 10.8088 18.125 10.7059C18.125 10.6031 18.1169 10.5005 18.1006 10.3987C18.0245 9.92107 17.7443 9.54729 17.4062 9.21054C17.0768 8.88237 16.6144 8.51573 16.054 8.07141L14.555 6.88287Z" fill="white"/>
</svg>
