<svg width="20" height="21" viewBox="0 0 20 21" fill="none" xmlns="http://www.w3.org/2000/svg">
<path d="M14.6323 8.62282C14.8626 8.36566 14.8407 7.97053 14.5836 7.74029C14.3264 7.51004 13.9313 7.53187 13.701 7.78904L10.8934 10.925C10.3245 11.5605 9.94133 11.9862 9.61377 12.2615C9.30172 12.5238 9.11844 12.5809 8.95833 12.5809C8.79823 12.5809 8.61495 12.5238 8.3029 12.2615C7.97533 11.9862 7.5922 11.5605 7.02329 10.925L6.29898 10.116C6.06874 9.85884 5.67361 9.83701 5.41644 10.0673C5.15927 10.2975 5.13744 10.6926 5.36769 10.9498L6.12296 11.7934C6.65283 12.3853 7.09479 12.8789 7.49863 13.2184C7.92582 13.5774 8.3866 13.8309 8.95833 13.8309C9.53006 13.8309 9.99084 13.5774 10.418 13.2184C10.8219 12.8789 11.2638 12.3853 11.7937 11.7934L14.6323 8.62282Z" fill="white"/>
<path fill-rule="evenodd" clip-rule="evenodd" d="M13.7196 2.68404C12.7678 2.58092 11.5682 2.58093 10.0377 2.58093H9.96229C8.43185 2.58093 7.23218 2.58092 6.2804 2.68404C5.30912 2.78927 4.52213 3.00787 3.8502 3.49606C3.44341 3.79161 3.08568 4.14934 2.79013 4.55613C2.30194 5.22807 2.08334 6.01505 1.97811 6.98633C1.87499 7.93811 1.87499 9.13778 1.875 10.6682V10.7436C1.87499 12.2741 1.87499 13.4738 1.97811 14.4255C2.08334 15.3968 2.30194 16.1838 2.79013 16.8557C3.08567 17.2625 3.44341 17.6203 3.8502 17.9158C4.52213 18.404 5.30912 18.6226 6.2804 18.7278C7.23216 18.8309 8.4318 18.8309 9.96221 18.8309H10.0377C11.5681 18.8309 12.7678 18.8309 13.7196 18.7278C14.6909 18.6226 15.4779 18.404 16.1498 17.9158C16.5566 17.6203 16.9143 17.2625 17.2099 16.8557C17.6981 16.1838 17.9167 15.3968 18.0219 14.4255C18.125 13.4738 18.125 12.2741 18.125 10.7437V10.6682C18.125 9.1378 18.125 7.93809 18.0219 6.98633C17.9167 6.01505 17.6981 5.22807 17.2099 4.55613C16.9143 4.14934 16.5566 3.79161 16.1498 3.49606C15.4779 3.00787 14.6909 2.78927 13.7196 2.68404ZM4.58493 4.50733C5.00826 4.19976 5.55011 4.02048 6.41504 3.92677C7.29166 3.83179 8.42369 3.83093 10 3.83093C11.5763 3.83093 12.7083 3.83179 13.585 3.92677C14.4499 4.02048 14.9917 4.19976 15.4151 4.50733C15.7157 4.72578 15.9802 4.99019 16.1986 5.29086C16.5062 5.7142 16.6855 6.25604 16.7792 7.12097C16.8741 7.99759 16.875 9.12962 16.875 10.7059C16.875 12.2822 16.8741 13.4143 16.7792 14.2909C16.6855 15.1558 16.5062 15.6977 16.1986 16.121C15.9802 16.4217 15.7157 16.6861 15.4151 16.9045C14.9917 17.2121 14.4499 17.3914 13.585 17.4851C12.7083 17.5801 11.5763 17.5809 10 17.5809C8.42369 17.5809 7.29166 17.5801 6.41504 17.4851C5.55011 17.3914 5.00826 17.2121 4.58493 16.9045C4.28426 16.6861 4.01985 16.4217 3.8014 16.121C3.49383 15.6977 3.31454 15.1558 3.22083 14.2909C3.12586 13.4143 3.125 12.2822 3.125 10.7059C3.125 9.12962 3.12586 7.99759 3.22083 7.12097C3.31454 6.25604 3.49383 5.7142 3.8014 5.29086C4.01985 4.99019 4.28426 4.72578 4.58493 4.50733Z" fill="white"/>
</svg>
