<svg width="14" height="14" viewBox="0 0 14 14" fill="none" xmlns="http://www.w3.org/2000/svg">
<path d="M4.03008 10.9872H10.4664C10.7311 10.9872 10.9457 11.2018 10.9457 11.4665C10.9457 11.7179 10.7521 11.9242 10.5057 11.9442L10.4664 11.9458H4.03008C3.76537 11.9458 3.55078 11.7312 3.55078 11.4665C3.55078 11.215 3.74445 11.0087 3.99077 10.9888L4.03008 10.9872H10.4664H4.03008ZM7.14048 2.15589L7.17979 2.1543C7.43127 2.1543 7.63751 2.34797 7.6575 2.59429L7.65909 2.6336V8.47644L8.97187 7.1639C9.15905 6.97672 9.46253 6.97672 9.6497 7.1639C9.83688 7.35108 9.83688 7.65456 9.6497 7.84174L7.51936 9.97208C7.33218 10.1593 7.0287 10.1593 6.84153 9.97208L4.71118 7.84174C4.524 7.65456 4.524 7.35108 4.71118 7.1639C4.89836 6.97672 5.20184 6.97672 5.38902 7.1639L6.70049 8.47534V2.6336C6.70049 2.38212 6.89415 2.17588 7.14048 2.15589L7.17979 2.1543L7.14048 2.15589Z" fill="black"/>
</svg>
