<svg width="134" height="11" viewBox="0 0 134 11" fill="none" xmlns="http://www.w3.org/2000/svg">
<path d="M14.0292 0.197849C15.3947 0.460603 16.8057 0.627786 18.1105 1.00997C20.9629 1.83406 23.7243 2.84925 26.1518 4.29439C29.8994 6.55168 34.3298 7.32804 38.7904 8.03269C40.4442 8.29545 42.0221 8.02073 43.418 7.29218C44.6014 6.68307 45.7545 6.03812 46.8924 5.36929C48.1821 4.60492 49.4263 3.78086 50.7159 3.01649C53.8869 1.12944 57.5434 0.305351 61.4276 0.0306539C63.7034 -0.136553 65.8276 0.400874 67.8758 1.14136C70.0758 1.94157 72.2606 2.77761 74.4758 3.54198C77.1765 4.46162 79.9834 5.08266 82.942 5.26181C84.7171 5.3693 86.3102 5.16628 87.8427 4.37802C91.4081 2.55069 95.444 1.85799 99.586 1.46385C101.741 1.26082 103.834 1.54741 105.883 2.0132C108.022 2.49094 110.131 3.0523 112.209 3.64946C112.938 3.86444 113.605 4.24665 114.227 4.62884C114.683 4.91548 114.531 5.60819 114.045 5.88289C113.18 6.38451 112.194 6.5278 111.163 6.32476C109.691 6.05006 108.189 5.82317 106.778 5.40516C101.058 3.7092 95.6564 4.52132 90.4068 6.62334C89.6026 6.94581 88.844 7.35191 88.0095 7.66244C86.4164 8.2596 84.7323 8.42682 82.9875 8.27156C79.5434 7.98492 76.2055 7.39967 73.0496 6.277C71.2138 5.62011 69.3172 5.03489 67.5724 4.24663C62.8841 2.12072 58.4083 2.87313 54.0386 4.77213C52.6428 5.38124 51.429 6.27698 50.1242 7.02941C48.5766 7.92516 47.0593 8.84482 45.4511 9.68085C43.16 10.8871 40.6111 11.2574 37.9104 10.8274C32.9339 10.0272 28.0787 9.02396 23.9822 6.44419C21.8429 5.0946 19.3091 4.24662 16.8057 3.39864C14.3781 2.57455 12.0719 2.78955 9.84157 3.78085C7.15607 4.97519 4.94092 6.57556 3.30231 8.64176C3.48438 9.53751 2.57402 9.65698 1.84575 9.87196C1.02644 10.1108 0.358867 9.68083 0.525763 9.05977C0.63197 8.67759 0.753348 8.28346 0.980934 7.92516C2.92299 4.93932 5.66917 2.56264 9.56846 1.10555C10.9795 0.603934 12.4209 0.269509 14.0292 0.197849Z" fill="white"/>
<circle cx="128.5" cy="5" r="5" fill="white"/>
</svg>
