<svg width="422" height="28" viewBox="0 0 422 28" fill="none" xmlns="http://www.w3.org/2000/svg">
<path d="M43.3864 0.485629C47.7584 1.13057 52.2761 1.54093 56.4538 2.47902C65.5865 4.50179 74.4278 6.99361 82.2003 10.5408C94.1991 16.0814 108.384 17.987 122.666 19.7166C127.961 20.3615 133.013 19.6872 137.482 17.899C141.271 16.4039 144.963 14.8208 148.607 13.1792C152.736 11.303 156.719 9.2803 160.848 7.40411C171.001 2.77226 182.708 0.749497 195.144 0.0752414C202.431 -0.335175 209.232 0.983964 215.79 2.80152C222.834 4.76566 229.829 6.81777 236.922 8.69396C245.569 10.9513 254.556 12.4756 264.028 12.9154C269.712 13.1792 274.813 12.6809 279.719 10.746C291.135 6.26078 304.057 4.56051 317.318 3.5931C324.217 3.09474 330.92 3.79819 337.478 4.9415C344.328 6.11411 351.08 7.492 357.735 8.95777C360.067 9.48545 362.205 10.4236 364.196 11.3617C365.654 12.0653 365.168 13.7656 363.613 14.4398C360.845 15.6711 357.687 16.0228 354.384 15.5244C349.672 14.8502 344.862 14.2932 340.345 13.2672C322.031 9.10441 304.737 11.0978 287.929 16.2573C285.354 17.0488 282.925 18.0456 280.253 18.8078C275.153 20.2736 269.761 20.684 264.174 20.3029C253.147 19.5993 242.46 18.1628 232.355 15.4072C226.477 13.7948 220.405 12.3584 214.819 10.4235C199.808 5.20539 185.477 7.05224 171.487 11.7134C167.018 13.2085 163.131 15.4071 158.954 17.254C153.999 19.4527 149.141 21.71 143.992 23.7621C136.656 26.7229 128.495 27.6318 119.848 26.5764C103.915 24.6123 88.3697 22.1497 75.2536 15.8176C68.404 12.5049 60.2916 10.4235 52.2762 8.34212C44.5037 6.31935 37.1197 6.84709 29.9788 9.28027C21.3804 12.2118 14.2881 16.14 9.04165 21.2116C9.62458 23.4102 6.70985 23.7035 4.3781 24.2312C1.75488 24.8175 -0.382537 23.762 0.151823 22.2376C0.49187 21.2995 0.880495 20.3321 1.60917 19.4527C7.82717 12.1238 16.6197 6.29012 29.1043 2.71363C33.6221 1.48238 38.2371 0.661522 43.3864 0.485629Z" fill="white"/>
<circle cx="407.93" cy="14" r="14" fill="white"/>
</svg>
