<svg width="102" height="53" viewBox="0 0 102 53" fill="none" xmlns="http://www.w3.org/2000/svg">
<path d="M38.2933 40.655C39.0797 39.764 40.0155 38.5701 40.3456 37.6179C46.0108 28.6332 45.5979 19.3129 45.3453 16.7186C45.2991 16.2378 45.2964 15.7529 45.257 15.2707C44.0563 0.491685 25.6779 0 25.6779 0C19.5033 0 14.797 1.45061 11.2166 3.55453C11.2166 3.55453 11.2126 3.55588 11.2071 3.55996C10.2183 4.14129 9.31646 4.77287 8.492 5.43705C5.72797 7.397 1.8108 10.3267 1.49704 11.4038C1.31504 12.0286 0.836936 13.9818 0.396864 16.3193C0.337102 16.6399 0.28413 16.9618 0.247458 17.285C-0.375977 22.7723 0.375133 27.461 0.375133 27.461C1.0624 32.6522 2.71811 36.6984 4.40912 39.6404C6.88384 43.9501 10.7317 47.328 15.3702 49.0068C20.9906 45.2132 30.4344 39.8957 38.2933 40.6536V40.655Z" fill="url(#paint0_linear_1258_1194)"/>
<path d="M24.0983 50.0691C26.3123 49.7934 28.4298 48.9825 30.2892 47.7506C32.984 45.9645 35.2061 44.0059 37.0383 41.9658C26.9072 43.2154 21.3248 46.6409 18.262 49.8518C20.5044 50.2905 22.4875 50.2715 24.0983 50.0705V50.0691Z" fill="#C03A27"/>
<path d="M39.0865 40.4434C37.7799 40.15 36.1377 39.7752 35.6012 39.6149C34.6627 39.3324 34.2865 38.7687 34.0691 38.2987C33.8491 37.8302 33.318 37.1728 32.4094 37.1728C31.9408 37.1728 31.4912 37.3059 31.1054 37.5463C30.7224 37.784 30.4046 38.129 30.2022 38.5527C30.0773 38.8135 29.9238 39.0879 29.7418 39.3595C29.5014 39.71 29.7662 40.1786 30.19 40.1432C30.7102 40.1011 31.3689 40.078 32.135 40.1188C32.5778 40.1419 32.6335 40.7748 32.2002 40.8699C29.7295 41.4132 25.7282 42.5147 22.3488 44.4774C22.156 44.5901 21.9713 44.3253 22.141 44.184C22.5743 43.8254 23.0945 43.4356 23.6908 43.0472C24.0983 42.7823 24.5777 42.4265 25.0789 42.0027L25.0843 42C25.0843 42 25.1115 41.9769 25.1591 41.9348C25.3533 41.7691 25.5489 41.5925 25.7472 41.4078C26.2076 40.9867 26.7536 40.4624 26.8501 40.2682C28.063 38.8814 29.0694 37.2094 29.136 35.5605C29.261 32.4719 28.4677 29.4471 23.991 28.5384C19.6473 27.6569 12.8235 28.4311 10.7698 21.7417C10.7046 21.5339 10.4221 21.5217 10.342 21.7187C9.60036 23.5835 7.68387 29.4946 10.6924 34.7795C13.9372 40.4747 20.8018 40.332 24.3061 38.2675C24.757 38.0026 24.6714 37.3262 24.1635 37.1986C22.7672 36.8454 20.4337 36.0794 18.5037 34.5649C18.6884 34.6546 22.1831 36.3429 25.7105 35.7765C26.3434 35.6733 26.8066 35.1205 26.8039 34.4794C26.8012 33.7608 26.6382 32.7625 25.9631 31.7262C25.9631 31.7262 26.3842 32.8902 26.2511 34.0963C26.194 34.6098 25.7675 35.005 25.2528 35.0457C23.2181 35.206 17.6996 35.1558 13.8924 30.6247C13.7851 30.497 13.5868 30.6396 13.6751 30.7822C15.0496 33.0057 17.906 36.5697 22.4969 37.4811C22.6952 37.5218 22.7101 37.7962 22.5173 37.8519C21.4157 38.1548 19.1923 38.5324 16.6062 37.6767C11.5943 36.0223 9.48355 31.0498 10.4751 23.9856C10.5077 23.7601 10.8133 23.7126 10.9083 23.9177C11.5549 25.3397 13.4265 28.2287 18.0785 28.7598C24.2952 29.4688 28.6362 29.1808 28.3007 35.5619C28.1662 38.1439 25.6575 40.1582 22.8215 42.2322L22.2212 42.6696C18.63 45.2788 14.7508 48.0496 14.5878 52.2085C14.5702 52.6309 15.1393 52.7844 15.3484 52.4191C17.049 49.4581 22.6911 42.6098 39.0539 40.9908C39.3663 40.9609 39.3962 40.5154 39.0892 40.4475L39.0865 40.4434Z" fill="url(#paint1_linear_1258_1194)"/>
<path d="M22.3896 42.543C23.8157 42.1872 29.0599 37.432 29.136 35.5576C29.261 32.4689 28.4677 29.4441 23.991 28.5355C19.6473 27.654 12.8235 28.4282 10.7698 21.7388C10.7046 21.531 10.4221 21.5188 10.342 21.7157C9.60036 23.5806 7.68387 29.4917 10.6924 34.7766C13.9372 40.4717 20.8018 40.3291 24.3061 38.2646C24.757 37.9997 24.6714 37.3233 24.1635 37.1956C22.7672 36.8425 20.4337 36.0764 18.5037 34.562C18.6884 34.6516 22.1831 36.3399 25.7105 35.7736C26.3434 35.6703 26.8066 35.1175 26.8039 34.4764C26.8012 33.7579 26.6382 32.7596 25.9631 31.7233C25.9631 31.7233 26.3842 32.8873 26.2511 34.0934C26.194 34.6068 25.7675 35.0021 25.2528 35.0428C23.2181 35.2031 17.6996 35.1528 13.8924 30.6217C13.7851 30.4941 13.5868 30.6367 13.6751 30.7793C15.0496 33.0027 17.906 36.5668 22.4969 37.4782C22.6952 37.5189 22.7101 37.7933 22.5173 37.849C21.4157 38.1518 19.1923 38.5294 16.6062 37.6737C11.5943 36.0194 9.48355 31.0469 10.4751 23.9826C10.5077 23.7572 10.8133 23.7096 10.9083 23.9147C11.5549 25.3368 13.4265 28.2258 18.0785 28.7569C24.2952 29.4659 28.6362 29.1779 28.3007 35.559C28.1594 38.27 25.3981 40.3563 22.3896 42.5444V42.543Z" fill="white"/>
<path d="M54.1587 20.7782L52.8239 20.5805V19.7566H57.5532V20.5805L55.9219 20.7782V31.0278L60.1733 30.8795L61.1455 28.1111L62.1507 28.2594L61.5739 32H52.791V31.1926L54.1587 31.0278V20.7782ZM65.1298 21.2067C64.7783 21.2067 64.5146 21.1078 64.3388 20.91C64.1631 20.7123 64.0752 20.4596 64.0752 20.152C64.0752 19.8005 64.1795 19.5094 64.3883 19.2787C64.608 19.048 64.9046 18.9326 65.2781 18.9326C65.6516 18.9326 65.9263 19.0315 66.102 19.2292C66.2778 19.427 66.3657 19.6797 66.3657 19.9873C66.3657 20.3608 66.2558 20.6574 66.0361 20.8771C65.8274 21.0968 65.5308 21.2067 65.1463 21.2067H65.1298ZM64.4707 24.1233L63.2183 23.8267V22.9534L65.7725 22.6403H65.8054L66.1844 22.9369V31.0607L67.5027 31.1926V32H63.1359V31.1926L64.4707 31.0443V24.1233ZM67.9148 22.8545H71.7378V23.629L70.5678 23.8432L72.2321 28.589L72.9242 30.6817L73.5174 28.6549L75.1818 23.8432L74.0612 23.629V22.8545H77.4063V23.629L76.5495 23.8432L73.3691 32.1318H71.9685L68.6563 23.8432L67.9148 23.629V22.8545ZM82.0921 32.1813C80.7629 32.1813 79.7467 31.7473 79.0436 30.8795C78.3515 30.0116 78.0055 28.8526 78.0055 27.4025C78.0055 26.4468 78.1867 25.6064 78.5493 24.8813C78.9118 24.1563 79.4171 23.596 80.0653 23.2005C80.7244 22.8051 81.4714 22.6073 82.3063 22.6073C83.328 22.6073 84.119 22.8929 84.6792 23.4642C85.2505 24.0245 85.5526 24.8319 85.5855 25.8865C85.5855 26.5566 85.5471 27.0675 85.4702 27.419H79.8016C79.8236 28.5066 80.0763 29.3854 80.5596 30.0555C81.043 30.7147 81.7296 31.0443 82.6194 31.0443C83.0588 31.0443 83.5148 30.9674 83.9871 30.8136C84.4705 30.6488 84.844 30.4565 85.1077 30.2368L85.4208 30.9619C85.1022 31.2914 84.6298 31.5771 84.0036 31.8187C83.3774 32.0604 82.7403 32.1813 82.0921 32.1813ZM83.7729 26.5457C83.8059 26.315 83.8223 26.0788 83.8223 25.8371C83.8114 25.123 83.6576 24.5628 83.361 24.1563C83.0753 23.7388 82.6194 23.5301 81.9932 23.5301C81.3561 23.5301 80.8453 23.7608 80.4608 24.2222C80.0872 24.6836 79.873 25.4581 79.8181 26.5457H83.7729ZM88.2047 19.7071L86.87 19.5259V18.8173L89.523 18.5042H89.5559L89.9185 18.7514V31.0607L91.3191 31.1926V32H86.87V31.1926L88.2047 31.0443V19.7071ZM93.824 36.1031C93.6372 36.1031 93.4504 36.0921 93.2637 36.0702C93.0879 36.0482 92.9616 36.0152 92.8847 35.9713V34.5377C92.9506 34.5816 93.0769 34.6146 93.2637 34.6365C93.4614 34.6585 93.6482 34.6695 93.824 34.6695C94.3513 34.6695 94.8127 34.4827 95.2081 34.1092C95.6146 33.7467 96.0046 33.0436 96.3781 32H95.5871L92.4563 23.8432L91.6982 23.629V22.8545H95.6695V23.629L94.4007 23.8267L96.0156 28.6878L96.7736 31.0937L97.4822 28.6714L98.9487 23.8267L97.8447 23.629V22.8545H101.157V23.629L100.333 23.8267C98.718 28.7702 97.7678 31.5771 97.4822 32.2472C97.1087 33.1919 96.7681 33.928 96.4605 34.4553C96.1529 34.9936 95.7904 35.4 95.3729 35.6747C94.9555 35.9603 94.4392 36.1031 93.824 36.1031Z" fill="#253977"/>
<path d="M66.7332 40.7002V36.4593H66.119L64.6554 39.9978H64.6319L63.1683 36.4593H62.554V40.7002H63.0478V37.4321H63.0683L64.4202 40.6708H64.867L66.2189 37.4321H66.2394V40.7002H66.7332ZM70.1835 40.2241H68.0851V38.7664H70.0748V38.2961H68.0851V36.9354H70.1835V36.4593H67.5561V40.7002H70.1835V40.2241ZM73.5104 40.2241H71.412V38.7664H73.4016V38.2961H71.412V36.9354H73.5104V36.4593H70.883V40.7002H73.5104V40.2241ZM75.8115 40.7002V36.9354H77.1488V36.4593H73.9453V36.9354H75.2825V40.7002H75.8115ZM78.2362 40.7002V36.4593H77.7072V40.7002H78.2362ZM79.5822 40.7002V37.3821H79.6086L81.9304 40.7002H82.4447V36.4593H81.9216V39.7891H81.8951L79.5734 36.4593H79.0591V40.7002H79.5822ZM86.8443 38.9457V38.543H85.1191V39.0074H86.3153V39.0838C86.3153 39.795 85.798 40.2829 85.0457 40.2829C84.1816 40.2829 83.6467 39.6216 83.6467 38.5548C83.6467 37.5056 84.1728 36.8766 85.0457 36.8766C85.6423 36.8766 86.0861 37.2029 86.2624 37.776H86.8178C86.6591 36.9325 85.9626 36.3888 85.0457 36.3888C83.8583 36.3888 83.103 37.2323 83.103 38.5577C83.103 39.9067 83.8613 40.7707 85.0457 40.7707C86.1772 40.7707 86.8443 40.0918 86.8443 38.9457ZM87.3204 39.5334C87.3704 40.2829 87.9934 40.7707 88.8927 40.7707C89.8685 40.7707 90.4798 40.2858 90.4798 39.5099C90.4798 38.9016 90.1241 38.5636 89.2454 38.3432L88.8016 38.2256C88.2256 38.0757 87.9905 37.8847 87.9905 37.5644C87.9905 37.15 88.3725 36.8649 88.9221 36.8649C89.4746 36.8649 89.842 37.1441 89.889 37.5996H90.418C90.3945 36.8884 89.7832 36.3888 88.9398 36.3888C88.0581 36.3888 87.4409 36.8825 87.4409 37.5879C87.4409 38.1639 87.7877 38.5078 88.5694 38.7076L89.1132 38.8487C89.6833 38.9956 89.9331 39.216 89.9331 39.5746C89.9331 39.9919 89.5158 40.2946 88.9427 40.2946C88.3373 40.2946 87.9023 39.9919 87.8523 39.5334H87.3204Z" fill="#C13927"/>
<defs>
<linearGradient id="paint0_linear_1258_1194" x1="-0.00110126" y1="24.5041" x2="45.4689" y2="24.5041" gradientUnits="userSpaceOnUse">
<stop stop-color="#C52127"/>
<stop offset="1" stop-color="#F47B20"/>
</linearGradient>
<linearGradient id="paint1_linear_1258_1194" x1="9.0557" y1="37.0981" x2="39.3025" y2="37.0981" gradientUnits="userSpaceOnUse">
<stop stop-color="#178FC3"/>
<stop offset="1" stop-color="#263877"/>
</linearGradient>
</defs>
</svg>
