<svg width="192" height="91" viewBox="0 0 192 91" fill="none" xmlns="http://www.w3.org/2000/svg">
<path d="M73.3637 69.6934C74.8704 68.1659 76.6633 66.1193 77.2956 64.4871C88.1493 49.0848 87.3582 33.1074 86.8742 28.6602C86.7858 27.8359 86.7805 27.0047 86.7051 26.1781C84.4048 0.842878 49.1947 0 49.1947 0C37.3652 0 28.3486 2.48672 21.4893 6.0934C21.4893 6.0934 21.4815 6.09572 21.4711 6.10271C19.5767 7.09926 17.8488 8.18196 16.2693 9.32054C10.9739 12.6804 3.4692 17.7027 2.86809 19.5492C2.5194 20.6202 1.60343 23.9684 0.760329 27.9756C0.645833 28.5251 0.544348 29.0769 0.474089 29.6311C-0.720311 39.0378 0.718694 47.0754 0.718694 47.0754C2.0354 55.9745 5.20745 62.9108 8.44717 67.9541C13.1883 75.342 20.5603 81.1327 29.4467 84.0106C40.2146 77.5074 58.3075 68.3918 73.3637 69.691V69.6934Z" fill="url(#paint0_linear_1268_1806)"/>
<path d="M46.1686 85.8316C50.4101 85.3589 54.4669 83.9689 58.0293 81.857C63.192 78.7952 67.4492 75.4377 70.9595 71.9404C51.5499 74.0825 40.8549 79.9547 34.987 85.4591C39.2832 86.2111 43.0824 86.1785 46.1686 85.8339V85.8316Z" fill="#C03A27"/>
<path d="M74.8833 69.3308C72.38 68.8279 69.2339 68.1852 68.2061 67.9105C66.408 67.4262 65.6872 66.4599 65.2708 65.6543C64.8493 64.851 63.8318 63.724 62.091 63.724C61.1932 63.724 60.3319 63.9522 59.5929 64.3643C58.859 64.7718 58.2501 65.3632 57.8624 66.0897C57.623 66.5367 57.329 67.0071 56.9803 67.4727C56.5197 68.0735 57.0271 68.8768 57.839 68.8162C58.8356 68.744 60.0977 68.7045 61.5653 68.7743C62.4136 68.8139 62.5203 69.8989 61.6902 70.0619C56.9569 70.9933 49.2908 72.8816 42.8166 76.2461C42.4471 76.4394 42.0932 75.9853 42.4185 75.7432C43.2486 75.1285 44.2452 74.4602 45.3876 73.7943C46.1682 73.3403 47.0868 72.7303 48.047 72.0038L48.0574 71.9991C48.0574 71.9991 48.1094 71.9596 48.2005 71.8874C48.5726 71.6033 48.9473 71.3006 49.3273 70.984C50.2094 70.2622 51.2555 69.3634 51.4402 69.0304C53.764 66.6532 55.6922 63.7869 55.8197 60.9602C56.0591 55.6655 54.5394 50.4802 45.9626 48.9225C37.6409 47.4113 24.5675 48.7385 20.633 37.2712C20.5081 36.915 19.9669 36.894 19.8134 37.2316C18.3926 40.4285 14.7209 50.5617 20.4847 59.6214C26.7013 69.3844 39.8527 69.1399 46.5664 65.6007C47.4303 65.1467 47.2663 63.9872 46.2931 63.7683C43.6181 63.1629 39.1475 61.8497 35.4498 59.2535C35.8037 59.4072 42.4991 62.3014 49.257 61.3305C50.4696 61.1535 51.357 60.2058 51.3518 59.1068C51.3466 57.8751 51.0343 56.1638 49.741 54.3872C49.741 54.3872 50.5477 56.3826 50.2927 58.4502C50.1834 59.3304 49.3663 60.0079 48.3801 60.0778C44.482 60.3525 33.9094 60.2664 26.6154 52.4989C26.4099 52.28 26.03 52.5245 26.1991 52.769C28.8325 56.5805 34.3049 62.6902 43.1003 64.2526C43.4802 64.3224 43.5088 64.7928 43.1393 64.8882C41.0289 65.4075 36.7691 66.0548 31.8146 64.5879C22.2126 61.7519 18.1688 53.2277 20.0684 41.1177C20.1308 40.7312 20.7163 40.6497 20.8985 41.0013C22.1371 43.4391 25.7229 48.3916 34.6354 49.302C46.5455 50.5174 54.8621 50.0238 54.2194 60.9626C53.9617 65.3888 49.1555 68.8418 43.7222 72.3973L42.572 73.147C35.6918 77.6199 28.26 82.3698 27.9478 89.4993C27.9139 90.2234 29.0042 90.4866 29.405 89.8602C32.6629 84.7843 43.4724 73.0446 74.8208 70.2691C75.4193 70.2179 75.4766 69.4542 74.8885 69.3378L74.8833 69.3308Z" fill="url(#paint1_linear_1268_1806)"/>
<path d="M42.8947 72.9303C45.627 72.3202 55.674 64.1685 55.8198 60.9554C56.0592 55.6606 54.5395 50.4753 45.9627 48.9176C37.6409 47.4065 24.5676 48.7336 20.6331 37.2663C20.5082 36.9101 19.9669 36.8891 19.8134 37.2267C18.3926 40.4236 14.721 50.5568 20.4848 59.6165C26.7014 69.3795 39.8528 69.135 46.5664 65.5958C47.4303 65.1418 47.2664 63.9823 46.2932 63.7634C43.6181 63.158 39.1476 61.8448 35.4499 59.2487C35.8038 59.4023 42.4992 62.2965 49.2571 61.3256C50.4697 61.1486 51.357 60.201 51.3518 59.102C51.3466 57.8702 51.0344 56.1589 49.7411 54.3823C49.7411 54.3823 50.5477 56.3777 50.2927 58.4454C50.1834 59.3255 49.3664 60.0031 48.3801 60.0729C44.4821 60.3477 33.9094 60.2615 26.6155 52.494C26.4099 52.2751 26.03 52.5196 26.1992 52.7641C28.8326 56.5757 34.3049 62.6854 43.1003 64.2477C43.4802 64.3176 43.5089 64.7879 43.1393 64.8834C41.029 65.4026 36.7692 66.0499 31.8147 64.583C22.2126 61.747 18.1688 53.2228 20.0684 41.1128C20.1309 40.7263 20.7164 40.6448 20.8985 40.9964C22.1372 43.4342 25.723 48.3867 34.6354 49.2971C46.5456 50.5125 54.8622 50.0189 54.2194 60.9577C53.9488 65.6052 48.6586 69.1816 42.8947 72.9326V72.9303Z" fill="white"/>
<path d="M101.136 36.5009L98.5785 36.122V34.5435H107.639V36.122L104.514 36.5009V56.1374L112.659 55.8532L114.521 50.5495L116.447 50.8336L115.342 58H98.5154V56.4531L101.136 56.1374V36.5009ZM122.155 37.3217C121.481 37.3217 120.976 37.1323 120.639 36.7534C120.302 36.3746 120.134 35.8905 120.134 35.3012C120.134 34.6277 120.334 34.07 120.734 33.628C121.155 33.186 121.723 32.965 122.439 32.965C123.154 32.965 123.68 33.1544 124.017 33.5333C124.354 33.9121 124.522 34.3962 124.522 34.9855C124.522 35.7011 124.312 36.2693 123.891 36.6903C123.491 37.1112 122.923 37.3217 122.186 37.3217H122.155ZM120.892 42.9096L118.492 42.3413V40.6681L123.386 40.0683H123.449L124.175 40.6365V56.2005L126.701 56.4531V58H118.335V56.4531L120.892 56.1689V42.9096ZM127.49 40.4787H134.814V41.9625L132.573 42.3729L135.761 51.465L137.087 55.4744L138.224 51.5913L141.413 42.3729L139.266 41.9625V40.4787H145.674V41.9625L144.033 42.3729L137.94 58.2526H135.256L128.911 42.3729L127.49 41.9625V40.4787ZM154.652 58.3473C152.105 58.3473 150.158 57.5159 148.811 55.8532C147.485 54.1906 146.822 51.9701 146.822 49.192C146.822 47.3609 147.17 45.7509 147.864 44.3618C148.559 42.9727 149.527 41.8993 150.769 41.1416C152.031 40.384 153.463 40.0051 155.062 40.0051C157.019 40.0051 158.535 40.5523 159.608 41.6468C160.703 42.7201 161.281 44.2671 161.344 46.2875C161.344 47.5714 161.271 48.5501 161.124 49.2236H150.263C150.306 51.3072 150.79 52.9909 151.716 54.2747C152.642 55.5375 153.957 56.1689 155.662 56.1689C156.504 56.1689 157.377 56.0216 158.282 55.727C159.208 55.4113 159.924 55.0429 160.429 54.622L161.029 56.0111C160.418 56.6425 159.513 57.1897 158.314 57.6527C157.114 58.1158 155.893 58.3473 154.652 58.3473ZM157.872 47.5503C157.935 47.1084 157.967 46.6559 157.967 46.1928C157.945 44.8248 157.651 43.7514 157.083 42.9727C156.535 42.1729 155.662 41.773 154.462 41.773C153.242 41.773 152.263 42.215 151.526 43.099C150.811 43.9829 150.4 45.4667 150.295 47.5503H157.872ZM166.362 34.4488L163.805 34.1015V32.744L168.888 32.1442H168.951L169.646 32.6178V56.2005L172.329 56.4531V58H163.805V56.4531L166.362 56.1689V34.4488ZM177.128 65.8609C176.77 65.8609 176.412 65.8399 176.055 65.7978C175.718 65.7557 175.476 65.6925 175.329 65.6084V62.8618C175.455 62.946 175.697 63.0091 176.055 63.0512C176.433 63.0933 176.791 63.1143 177.128 63.1143C178.138 63.1143 179.022 62.7565 179.78 62.041C180.559 61.3464 181.306 59.9994 182.021 58H180.506L174.508 42.3729L173.055 41.9625V40.4787H180.664V41.9625L178.233 42.3413L181.327 51.6544L182.779 56.2637L184.137 51.6229L186.946 42.3413L184.831 41.9625V40.4787H191.177V41.9625L189.598 42.3413C186.504 51.8123 184.684 57.1897 184.137 58.4735C183.421 60.2836 182.768 61.6937 182.179 62.7039C181.59 63.7352 180.895 64.5139 180.096 65.0401C179.296 65.5873 178.307 65.8609 177.128 65.8609Z" fill="white"/>
<path d="M125.226 73.8271H124.28V67.566H124.241L121.651 73.7708H120.795L118.205 67.566H118.165V73.8271H117.22V65.7023H118.396L121.2 72.4815H121.245L124.049 65.7023H125.226V73.8271ZM131.836 72.915V73.8271H126.803V65.7023H131.836V66.6145H127.816V69.2214H131.628V70.1223H127.816V72.915H131.836ZM138.21 72.915V73.8271H133.176V65.7023H138.21V66.6145H134.19V69.2214H138.002V70.1223H134.19V72.915H138.21ZM142.619 73.8271H141.605V66.6145H139.043V65.7023H145.181V66.6145H142.619V73.8271ZM147.264 73.8271H146.251V65.7023H147.264V73.8271ZM149.843 73.8271H148.841V65.7023H149.826L154.274 72.0817H154.325V65.7023H155.327V73.8271H154.342L149.893 67.4703H149.843V73.8271ZM163.756 70.4657C163.756 72.6616 162.478 73.9623 160.31 73.9623C158.041 73.9623 156.588 72.3069 156.588 69.7225C156.588 67.1831 158.035 65.5672 160.31 65.5672C162.067 65.5672 163.401 66.6088 163.705 68.2248H162.641C162.303 67.1268 161.453 66.5018 160.31 66.5018C158.638 66.5018 157.63 67.7068 157.63 69.7169C157.63 71.7607 158.655 73.0276 160.31 73.0276C161.751 73.0276 162.742 72.0929 162.742 70.7304V70.584H160.451V69.6943H163.756V70.4657ZM164.668 71.5918H165.687C165.783 72.4702 166.616 73.0501 167.776 73.0501C168.874 73.0501 169.673 72.4702 169.673 71.6707C169.673 70.9837 169.195 70.5614 168.103 70.2799L167.061 70.0097C165.563 69.6268 164.899 68.968 164.899 67.8644C164.899 66.5131 166.081 65.5672 167.77 65.5672C169.386 65.5672 170.557 66.5244 170.603 67.8869H169.589C169.499 67.0142 168.795 66.4793 167.737 66.4793C166.684 66.4793 165.952 67.0255 165.952 67.8194C165.952 68.4331 166.402 68.7991 167.506 69.0862L168.356 69.3115C170.039 69.7338 170.721 70.3813 170.721 71.5468C170.721 73.0332 169.55 73.9623 167.68 73.9623C165.957 73.9623 164.764 73.0276 164.668 71.5918Z" fill="white"/>
<defs>
<linearGradient id="paint0_linear_1268_1806" x1="-0.00210983" y1="42.0065" x2="87.111" y2="42.0065" gradientUnits="userSpaceOnUse">
<stop stop-color="#C52127"/>
<stop offset="1" stop-color="#F47B20"/>
</linearGradient>
<linearGradient id="paint1_linear_1268_1806" x1="17.3491" y1="63.596" x2="75.297" y2="63.596" gradientUnits="userSpaceOnUse">
<stop stop-color="#178FC3"/>
<stop offset="1" stop-color="#263877"/>
</linearGradient>
</defs>
</svg>
