<svg width="768" height="633" viewBox="0 0 768 633" fill="none" xmlns="http://www.w3.org/2000/svg">
<g id="No Results">
<g id="circle">
<path id="Stroke 1" d="M24.2285 290.833V297.356" stroke="#D2D8DF" stroke-width="2.11705" stroke-linecap="round"/>
<g id="Group 8">
<path id="Stroke 2" d="M9.58008 294.366L14.9102 299.853" stroke="#D2D8DF" stroke-width="2.11705" stroke-linecap="round"/>
<path id="Stroke 4" d="M3.3457 308.974H10.8825" stroke="#D2D8DF" stroke-width="2.11705" stroke-linecap="round"/>
<path id="Stroke 6" d="M8.9707 323.838L14.3008 318.352" stroke="#D2D8DF" stroke-width="2.11705" stroke-linecap="round"/>
</g>
<path id="Stroke 9" d="M24.2285 325.623V319.1" stroke="#D2D8DF" stroke-width="2.11705" stroke-linecap="round"/>
<path id="Stroke 10" d="M35.1045 321.273L30.7559 316.925" stroke="#D2D8DF" stroke-width="2.11705" stroke-linecap="round"/>
<path id="Stroke 11" d="M43.8002 310.402H37.2773" stroke="#D2D8DF" stroke-width="2.11705" stroke-linecap="round"/>
<path id="Stroke 12" d="M39.4521 295.182L35.1035 299.531" stroke="#D2D8DF" stroke-width="2.11705" stroke-linecap="round"/>
<path id="Stroke 13" d="M374.291 6V10.3486" stroke="#D2D8DF" stroke-width="2.11705" stroke-linecap="round"/>
<path id="Stroke 15" d="M361.248 19.0459H365.597" stroke="#D2D8DF" stroke-width="2.11705" stroke-linecap="round"/>
<path id="Stroke 16" d="M374.291 32.0913V27.7427" stroke="#D2D8DF" stroke-width="2.11705" stroke-linecap="round"/>
<path id="Stroke 17" d="M385.167 19.0459H380.818" stroke="#D2D8DF" stroke-width="2.11705" stroke-linecap="round"/>
<path id="Stroke 18" d="M122.074 188.641V195.164" stroke="#D2D8DF" stroke-width="2.11705" stroke-linecap="round"/>
<path id="Stroke 19" d="M102.504 208.21H109.027" stroke="#D2D8DF" stroke-width="2.11705" stroke-linecap="round"/>
<path id="Stroke 20" d="M122.074 225.605V219.082" stroke="#D2D8DF" stroke-width="2.11705" stroke-linecap="round"/>
<path id="Stroke 21" d="M139.466 208.21H132.943" stroke="#D2D8DF" stroke-width="2.11705" stroke-linecap="round"/>
<g id="Group 42">
<path id="Stroke 22" d="M590.104 425.726C595.3 425.726 599.514 429.941 599.514 435.139C599.514 440.338 595.3 444.552 590.104 444.552C584.908 444.552 580.693 440.338 580.693 435.139" stroke="#D2D8DF" stroke-width="2.11705" stroke-linecap="round"/>
<path id="Fill 26" fill-rule="evenodd" clip-rule="evenodd" d="M633.17 340.329C638.757 338.586 647.322 331.752 649.305 324.4C651.103 330.899 658.64 338.586 665.44 339.167C657.785 341.878 650.466 349.93 649.305 356.255C648.515 349.808 638.392 341.268 633.17 340.329Z" fill="#EBECEE"/>
<path id="Fill 28" fill-rule="evenodd" clip-rule="evenodd" d="M59.6133 422.826C62.408 421.955 66.6886 418.539 67.6798 414.863C68.5788 418.111 72.3462 421.955 75.7464 422.246C71.9198 423.6 68.2613 427.627 67.6798 430.79C67.2848 427.566 62.2234 423.295 59.6133 422.826Z" fill="#EBECEE"/>
<path id="Fill 30" fill-rule="evenodd" clip-rule="evenodd" d="M111.478 120.363C111.478 124.395 108.211 127.661 104.182 127.661C100.15 127.661 96.8848 124.395 96.8848 120.363C96.8848 116.332 100.15 113.064 104.182 113.064C108.211 113.064 111.478 116.332 111.478 120.363Z" fill="#D1D8DF"/>
<path id="Fill 32" fill-rule="evenodd" clip-rule="evenodd" d="M598.724 139.961C598.724 146.699 593.262 152.16 586.528 152.16C579.79 152.16 574.33 146.699 574.33 139.961C574.33 133.224 579.79 127.762 586.528 127.762C593.262 127.762 598.724 133.224 598.724 139.961Z" fill="#EBECEE"/>
<path id="Fill 34" fill-rule="evenodd" clip-rule="evenodd" d="M767.659 106.909C767.659 112.254 763.329 116.586 757.987 116.586C752.643 116.586 748.312 112.254 748.312 106.909C748.312 101.564 752.643 97.2319 757.987 97.2319C763.329 97.2319 767.659 101.564 767.659 106.909Z" fill="#EBECEE"/>
<path id="Stroke 36" fill-rule="evenodd" clip-rule="evenodd" d="M247.848 558.855C247.848 562.224 245.118 564.955 241.749 564.955C238.382 564.955 235.652 562.224 235.652 558.855C235.652 555.485 238.382 552.754 241.749 552.754C245.118 552.754 247.848 555.485 247.848 558.855Z" stroke="#D2D8DF" stroke-width="2.11705" stroke-linecap="round"/>
<path id="Stroke 38" fill-rule="evenodd" clip-rule="evenodd" d="M244.217 73.473C244.217 77.5055 240.949 80.7718 236.92 80.7718C232.89 80.7718 229.623 77.5055 229.623 73.473C229.623 69.4424 232.89 66.1743 236.92 66.1743C240.949 66.1743 244.217 69.4424 244.217 73.473Z" stroke="#D2D8DF" stroke-width="2.11705" stroke-linecap="round"/>
<path id="Stroke 40" fill-rule="evenodd" clip-rule="evenodd" d="M430.344 626.407C425.681 628.182 420.463 625.838 418.689 621.176C416.915 616.512 419.255 611.291 423.92 609.518C428.581 607.744 433.799 610.085 435.573 614.749C437.349 619.413 435.006 624.633 430.344 626.407Z" stroke="#D2D8DF" stroke-width="2.11705" stroke-linecap="round"/>
</g>
</g>
<g id="search">
<g id="documents">
<path id="Fill 1" fill-rule="evenodd" clip-rule="evenodd" d="M427.561 453.906H249.258C236.708 453.906 226.436 443.603 226.436 431.011V176.742C226.436 164.15 236.708 153.853 249.258 153.853H427.561C440.116 153.853 450.389 164.15 450.389 176.742V431.011C450.389 443.603 440.116 453.906 427.561 453.906Z" fill="#E0E2EE"/>
<path id="Fill 3" fill-rule="evenodd" clip-rule="evenodd" d="M412.344 464.778H234.041C221.491 464.778 211.219 454.475 211.219 441.883V187.615C211.219 175.023 221.491 164.725 234.041 164.725H412.344C424.899 164.725 435.172 175.023 435.172 187.615V441.883C435.172 454.475 424.899 464.778 412.344 464.778Z" fill="#E8EBF2"/>
<path id="Fill 5" fill-rule="evenodd" clip-rule="evenodd" d="M397.537 473.361H218.866C206.29 473.361 195.996 463.1 195.996 450.56V197.344C195.996 184.805 206.29 174.549 218.866 174.549H397.537C410.118 174.549 420.412 184.805 420.412 197.344V450.56C420.412 463.1 410.118 473.361 397.537 473.361Z" fill="#D8DBEA"/>
<path id="Fill 8" fill-rule="evenodd" clip-rule="evenodd" d="M397.537 473.361H218.866C206.29 473.361 195.996 463.1 195.996 450.56V197.344C195.996 184.805 206.29 174.549 218.866 174.549H397.537C410.118 174.549 420.412 184.805 420.412 197.344V450.56C420.412 463.1 410.118 473.361 397.537 473.361Z" fill="#F1F2F7"/>
<path id="Fill 11" fill-rule="evenodd" clip-rule="evenodd" d="M371.781 251.697H239.811C236.042 251.697 232.957 248.762 232.957 245.176C232.957 241.586 236.042 238.651 239.811 238.651H371.781C375.55 238.651 378.635 241.586 378.635 245.176C378.635 248.762 375.55 251.697 371.781 251.697Z" fill="#E0E2EE"/>
<path id="Fill 13" fill-rule="evenodd" clip-rule="evenodd" d="M371.781 290.833H239.811C236.042 290.833 232.957 287.898 232.957 284.312C232.957 280.722 236.042 277.787 239.811 277.787H371.781C375.55 277.787 378.635 280.722 378.635 284.312C378.635 287.898 375.55 290.833 371.781 290.833Z" fill="#E0E2EE"/>
<path id="Fill 15" fill-rule="evenodd" clip-rule="evenodd" d="M371.781 329.971H239.811C236.042 329.971 232.957 327.036 232.957 323.45C232.957 319.865 236.042 316.925 239.811 316.925H371.781C375.55 316.925 378.635 319.865 378.635 323.45C378.635 327.036 375.55 329.971 371.781 329.971Z" fill="#E0E2EE"/>
<path id="Fill 17" fill-rule="evenodd" clip-rule="evenodd" d="M371.781 369.108H239.811C236.042 369.108 232.957 366.173 232.957 362.588C232.957 358.997 236.042 356.062 239.811 356.062H371.781C375.55 356.062 378.635 358.997 378.635 362.588C378.635 366.173 375.55 369.108 371.781 369.108Z" fill="#E0E2EE"/>
<path id="Fill 19" fill-rule="evenodd" clip-rule="evenodd" d="M308.697 408.246H239.84C236.055 408.246 232.957 405.311 232.957 401.726C232.957 398.135 236.055 395.2 239.84 395.2H308.697C312.482 395.2 315.581 398.135 315.581 401.726C315.581 405.311 312.482 408.246 308.697 408.246Z" fill="#E0E2EE"/>
</g>
<g id="search_2">
<path id="Fill 21" fill-rule="evenodd" clip-rule="evenodd" d="M447.685 357.665C421.296 384.049 380.443 387.025 350.784 366.655C346.994 364.005 343.386 361.028 340.021 357.665C338.289 355.938 336.657 354.157 335.119 352.281C332.042 348.536 329.347 344.542 327.14 340.414C323.25 333.443 320.605 326.047 319.16 318.401C314.501 294.423 321.468 268.614 340.021 250.069C358.619 231.469 384.433 224.548 408.414 229.162C416.056 230.65 423.46 233.295 430.432 237.14C434.565 239.397 438.505 242.091 442.257 245.167C444.127 246.7 445.909 248.337 447.635 250.069C451.005 253.433 454.026 257.034 456.627 260.83C477.007 290.478 474.024 331.33 447.685 357.665Z" fill="white" fill-opacity="0.1"/>
<path id="Fill 23" fill-rule="evenodd" clip-rule="evenodd" d="M440.299 352.468C412.845 379.927 368.353 379.922 340.894 352.468C313.471 325.045 313.471 280.548 340.93 253.094C368.353 225.671 412.845 225.671 440.268 253.094C467.722 280.548 467.722 325.045 440.299 352.468ZM454.389 238.989C419.149 203.749 362.044 203.749 326.805 238.989C291.57 274.223 291.539 331.364 326.774 366.604C358.846 398.666 409.115 401.557 444.473 375.232C447.926 372.657 451.252 369.771 454.424 366.604C457.592 363.431 460.478 360.105 463.048 356.652C489.373 321.29 486.456 271.056 454.389 238.989Z" fill="#E0E2EE"/>
<path id="Fill 25" fill-rule="evenodd" clip-rule="evenodd" d="M593.072 499.44L591.592 500.92C581.804 510.712 565.777 510.712 555.984 500.92L465.609 410.545L502.697 373.458L593.072 463.832C602.864 473.625 602.864 489.647 593.072 499.44Z" fill="url(#paint0_linear_2441_6084)"/>
<path id="Fill 27" fill-rule="evenodd" clip-rule="evenodd" d="M464.993 353.889L491.699 380.595L472.74 399.549L446.039 372.843C449.563 370.216 452.951 367.27 456.194 364.038C459.426 360.806 462.371 357.413 464.993 353.889Z" fill="#E0E2EE"/>
<path id="Fill 29" fill-rule="evenodd" clip-rule="evenodd" d="M591.718 462.72L554.867 499.567L548.232 492.927L585.079 456.081L591.718 462.72Z" fill="#EF545F"/>
<path id="Fill 31" fill-rule="evenodd" clip-rule="evenodd" d="M504.748 374.733L466.887 412.594L461.262 406.97L499.123 369.108L504.748 374.733Z" fill="url(#paint1_linear_2441_6084)"/>
<path id="Fill 33" fill-rule="evenodd" clip-rule="evenodd" d="M422.125 243.648L329.275 336.493C325.778 330.226 323.401 323.577 322.107 316.703L402.334 236.476C409.203 237.819 415.858 240.191 422.125 243.648Z" fill="white" fill-opacity="0.5"/>
<path id="Fill 35" fill-rule="evenodd" clip-rule="evenodd" d="M452.562 265.718L352.181 360.412C348.586 358.045 345.165 355.382 341.974 352.372C340.331 350.822 338.778 349.233 337.324 347.555L438.928 251.697C440.707 253.073 442.397 254.539 444.034 256.088C447.225 259.098 450.096 262.321 452.562 265.718Z" fill="white" fill-opacity="0.5"/>
</g>
</g>
</g>
<defs>
<linearGradient id="paint0_linear_2441_6084" x1="533.013" y1="306.054" x2="398.206" y2="440.861" gradientUnits="userSpaceOnUse">
<stop stop-color="#FF8960"/>
<stop offset="1" stop-color="#FF62A5"/>
</linearGradient>
<linearGradient id="paint1_linear_2441_6084" x1="483.005" y1="347.365" x2="439.519" y2="390.851" gradientUnits="userSpaceOnUse">
<stop stop-color="#FF404E"/>
<stop offset="1" stop-color="#FF62A5"/>
</linearGradient>
</defs>
</svg>
